<?xml version="1.0" encoding="iso-8859-1"?>
<!-- Generator: Adobe Illustrator 19.0.0, SVG Export Plug-In . SVG Version: 6.00 Build 0)  -->
<svg version="1.1" id="Capa_1" xmlns="http://www.w3.org/2000/svg" xmlns:xlink="http://www.w3.org/1999/xlink" x="0px" y="0px"
	 viewBox="0 0 512 512" style="enable-background:new 0 0 512 512;" xml:space="preserve">
<rect x="181" y="422" style="fill:#0A4EAF;" width="150" height="90"/>
<rect x="256" y="422" style="fill:#063E8B;" width="75" height="90"/>
<path style="fill:#0A4EAF;" d="M512,45v316l-30,31H30L0,361V45C0,20.099,20.099,0,45,0h422C491.901,0,512,20.099,512,45z"/>
<path style="fill:#063E8B;" d="M512,45v316l-30,31H256V0h211C491.901,0,512,20.099,512,45z"/>
<path style="fill:#FEDBAB;" d="M482,45v347H30V45c0-8.401,6.599-15,15-15h422C475.401,30,482,36.599,482,45z"/>
<path style="fill:#FEC478;" d="M482,45v347H256V30h211C475.401,30,482,36.599,482,45z"/>
<path style="fill:#0D70B2;" d="M512,361v46c0,24.899-20.099,45-45,45H45c-24.901,0-45-20.101-45-45v-46H512z"/>
<path style="fill:#095C92;" d="M512,361v46c0,24.899-20.099,45-45,45H256v-91H512z"/>
<path style="fill:#0D70B2;" d="M391,497c0,8.399-6.599,15-15,15H136c-8.401,0-15-6.601-15-15c0-8.401,6.599-15,15-15h240
	C384.401,482,391,488.599,391,497z"/>
<path style="fill:#095C92;" d="M391,497c0,8.399-6.599,15-15,15H256v-30h120C384.401,482,391,488.599,391,497z"/>
<path style="fill:#FD003A;" d="M256,60c-74.399,0-135,61.599-135,136c0,74.399,60.601,135,135,135s135-60.601,135-135
	C391,121.599,330.399,60,256,60z"/>
<path style="fill:#E50027;" d="M391,196c0,74.399-60.601,135-135,135V60C330.399,60,391,121.599,391,196z"/>
<path style="fill:#E1E4FB;" d="M271,136v60c0,8.399-6.599,15-15,15s-15-6.601-15-15v-60c0-8.401,6.599-15,15-15S271,127.599,271,136
	z"/>
<path style="fill:#C5C9F7;" d="M271,136v60c0,8.399-6.599,15-15,15v-90C264.401,121,271,127.599,271,136z"/>
<path style="fill:#E1E4FB;" d="M271,256c0,8.399-6.599,15-15,15s-15-6.601-15-15c0-8.401,6.599-15,15-15S271,247.599,271,256z"/>
<path style="fill:#C5C9F7;" d="M271,256c0,8.399-6.599,15-15,15v-30C264.401,241,271,247.599,271,256z"/>
<g>
</g>
<g>
</g>
<g>
</g>
<g>
</g>
<g>
</g>
<g>
</g>
<g>
</g>
<g>
</g>
<g>
</g>
<g>
</g>
<g>
</g>
<g>
</g>
<g>
</g>
<g>
</g>
<g>
</g>
</svg>
