<svg id="Capa_1" enable-background="new 0 0 512 512" height="512" viewBox="0 0 512 512" width="512" xmlns="http://www.w3.org/2000/svg"><g><g><g><path d="m10 144.713h492v313.897h-492z" fill="#faf7f5"/><path d="m10 53.39h492v91.323h-492z" fill="#9d9ae8"/><path d="m238.68 202.303-80.089 138.717c-7.698 13.333 1.924 30 17.32 30h160.177c15.396 0 25.018-16.667 17.32-30l-80.088-138.717c-7.698-13.334-26.942-13.334-34.64 0z" fill="#ff9eb1"/></g></g><g><path d="m502 43.391h-201c-5.522 0-10 4.478-10 10s4.478 10 10 10h191v71.322h-472v-71.322h191c5.523 0 10-4.478 10-10s-4.477-10-10-10h-201c-5.523 0-10 4.478-10 10v405.219c0 5.522 4.477 10 10 10h492c5.522 0 10-4.478 10-10v-405.219c0-5.523-4.478-10-10-10zm-482 405.218v-293.896h472v293.896z"/><circle cx="256" cy="53.39" r="10"/><circle cx="64.188" cy="99.052" r="10"/><circle cx="104.188" cy="99.052" r="10"/><circle cx="144.188" cy="99.052" r="10"/><path d="m281.98 197.303c-5.423-9.393-15.136-15-25.981-15s-20.558 5.607-25.98 15l-80.088 138.717c-5.423 9.393-5.423 20.608-.001 30 5.423 9.393 15.135 15 25.981 15h160.176c10.846 0 20.558-5.607 25.98-14.999 5.423-9.393 5.424-20.607.001-30.001zm62.768 158.717c-.867 1.504-3.449 5-8.66 5h-160.176c-5.211 0-7.793-3.496-8.66-5-.868-1.503-2.605-5.487 0-10l80.088-138.717c2.605-4.513 6.924-5 8.66-5s6.055.487 8.661 5l80.089 138.716c2.604 4.513.866 8.498-.002 10.001z"/><path d="m356.118 401.02h-200.236c-5.523 0-10 4.478-10 10 0 5.523 4.477 10 10 10h200.236c5.522 0 10-4.477 10-10s-4.477-10-10-10z"/><path d="m256 243.505c-5.523 0-10 4.477-10 10v37.515c0 5.523 4.477 10 10 10 5.522 0 10-4.477 10-10v-37.515c0-5.523-4.478-10-10-10z"/><circle cx="256" cy="331.02" r="10"/></g></g></svg>